<svg xmlns="http://www.w3.org/2000/svg" viewBox="0 0 97 97" shape-rendering="crispEdges"><path fill="#ffffff" d="M0 0h97v97H0z"/><path stroke="#000000" d="M4 4.5h7m1 0h3m2 0h3m2 0h1m1 0h1m1 0h1m2 0h2m1 0h5m3 0h1m3 0h5m1 0h3m1 0h1m2 0h1m3 0h1m3 0h1m1 0h1m3 0h2m1 0h1m1 0h2m1 0h1m1 0h4m1 0h7M4 5.5h1m5 0h1m1 0h1m1 0h2m1 0h3m1 0h2m1 0h1m5 0h1m1 0h3m1 0h4m2 0h1m1 0h3m4 0h5m1 0h3m1 0h3m2 0h2m1 0h1m5 0h2m1 0h2m3 0h1m2 0h1m5 0h1M4 6.5h1m1 0h3m1 0h1m1 0h1m1 0h1m1 0h4m4 0h3m1 0h3m3 0h6m1 0h2m1 0h1m4 0h3m1 0h2m1 0h3m2 0h1m4 0h2m1 0h1m1 0h1m2 0h2m3 0h2m5 0h1m1 0h3m1 0h1M4 7.5h1m1 0h3m1 0h1m1 0h1m9 0h1m2 0h1m2 0h1m1 0h1m1 0h1m2 0h1m2 0h1m1 0h2m2 0h2m1 0h4m2 0h1m1 0h1m1 0h1m2 0h1m3 0h2m1 0h5m2 0h2m1 0h2m3 0h1m1 0h1m1 0h1m1 0h3m1 0h1M4 8.5h1m1 0h3m1 0h1m3 0h1m1 0h1m1 0h5m1 0h1m2 0h1m1 0h1m2 0h5m2 0h2m2 0h1m2 0h2m3 0h1m1 0h2m3 0h5m3 0h3m1 0h1m4 0h5m3 0h1m2 0h1m1 0h3m1 0h1M4 9.5h1m5 0h1m1 0h4m2 0h1m1 0h3m3 0h1m1 0h5m3 0h2m1 0h1m1 0h2m2 0h1m5 0h1m5 0h2m3 0h4m1 0h1m1 0h4m1 0h1m3 0h2m1 0h1m1 0h1m2 0h1m5 0h1M4 10.5h7m1 0h1m1 0h1m1 0h1m1 0h1m1 0h1m1 0h1m1 0h1m1 0h1m1 0h1m1 0h1m1 0h1m1 0h1m1 0h1m1 0h1m1 0h1m1 0h1m1 0h1m1 0h1m1 0h1m1 0h1m1 0h1m1 0h1m1 0h1m1 0h1m1 0h1m1 0h1m1 0h1m1 0h1m1 0h1m1 0h1m1 0h1m1 0h1m1 0h1m1 0h1m1 0h1m1 0h1m1 0h1m1 0h7M13 11.5h2m2 0h2m1 0h1m2 0h1m1 0h1m1 0h1m1 0h2m1 0h1m3 0h2m2 0h2m2 0h2m3 0h3m3 0h4m3 0h1m4 0h1m1 0h9m3 0h1M4 12.5h2m2 0h3m2 0h3m1 0h3m1 0h1m1 0h1m1 0h1m3 0h1m2 0h7m2 0h1m11 0h1m2 0h1m1 0h5m1 0h3m2 0h1m3 0h2m3 0h1m1 0h1m2 0h2m2 0h1m1 0h4M7 13.5h3m1 0h5m1 0h1m2 0h2m2 0h1m3 0h2m3 0h1m2 0h2m1 0h1m4 0h1m3 0h3m2 0h4m2 0h4m1 0h4m2 0h4m3 0h2m2 0h1m5 0h2m2 0h2M6 14.5h1m3 0h3m1 0h1m1 0h4m1 0h1m1 0h2m2 0h1m1 0h3m3 0h1m2 0h1m2 0h1m4 0h1m1 0h1m2 0h3m1 0h3m4 0h1m1 0h1m1 0h1m1 0h3m2 0h4m1 0h1m1 0h2m1 0h1m1 0h3m3 0h2M4 15.5h5m4 0h4m2 0h1m4 0h1m1 0h2m1 0h2m1 0h2m3 0h6m1 0h2m1 0h1m1 0h1m1 0h1m2 0h1m3 0h1m1 0h1m1 0h2m1 0h2m1 0h1m1 0h3m1 0h3m2 0h3m2 0h1m1 0h1m3 0h1M10 16.5h2m2 0h1m1 0h1m2 0h4m1 0h1m2 0h2m1 0h2m2 0h1m1 0h1m1 0h4m4 0h1m2 0h1m1 0h3m4 0h1m2 0h1m2 0h1m1 0h3m1 0h1m3 0h1m4 0h1m2 0h2m3 0h1m3 0h2M4 17.5h2m2 0h1m2 0h1m1 0h1m2 0h1m1 0h1m2 0h3m4 0h2m1 0h2m2 0h2m1 0h2m3 0h1m4 0h1m4 0h2m2 0h1m5 0h3m2 0h5m1 0h2m3 0h1m3 0h1m1 0h2m2 0h2m1 0h1M4 18.5h2m2 0h1m1 0h1m2 0h1m1 0h1m1 0h2m1 0h1m1 0h4m1 0h3m1 0h3m1 0h1m1 0h1m1 0h2m2 0h3m2 0h6m1 0h2m1 0h1m1 0h1m1 0h3m1 0h1m1 0h1m2 0h1m1 0h1m2 0h1m1 0h1m1 0h2m2 0h1m2 0h1m4 0h1M6 19.5h1m2 0h1m2 0h1m1 0h5m1 0h1m3 0h1m1 0h2m3 0h1m2 0h1m2 0h1m2 0h2m1 0h1m5 0h2m3 0h1m1 0h4m3 0h2m1 0h4m1 0h3m1 0h5m1 0h2m1 0h5M5 20.5h1m1 0h1m1 0h2m1 0h4m4 0h1m3 0h3m1 0h3m2 0h1m2 0h2m3 0h1m2 0h3m2 0h1m1 0h2m1 0h2m2 0h3m10 0h2m3 0h2m1 0h1m1 0h2m1 0h1m1 0h1m1 0h1m1 0h1M6 21.5h1m4 0h1m2 0h2m2 0h1m1 0h1m2 0h1m1 0h1m2 0h2m2 0h1m3 0h1m1 0h3m1 0h3m2 0h1m2 0h1m2 0h1m1 0h1m3 0h1m1 0h1m1 0h5m1 0h2m3 0h1m2 0h3m4 0h2m1 0h3m1 0h1M9 22.5h2m3 0h1m6 0h2m3 0h3m1 0h3m1 0h1m1 0h2m3 0h1m3 0h1m3 0h3m1 0h1m2 0h1m2 0h1m1 0h2m2 0h1m6 0h1m4 0h3m3 0h1m1 0h2m2 0h1M5 23.5h4m2 0h2m1 0h4m8 0h1m2 0h1m1 0h6m1 0h2m1 0h1m2 0h2m3 0h1m3 0h6m2 0h2m1 0h1m1 0h2m1 0h2m7 0h4m5 0h1M4 24.5h1m1 0h1m1 0h3m1 0h2m1 0h4m2 0h3m2 0h1m5 0h2m3 0h3m1 0h1m1 0h4m2 0h4m4 0h1m2 0h1m1 0h1m2 0h1m1 0h1m2 0h1m1 0h1m3 0h1m2 0h3m2 0h3m1 0h3M7 25.5h1m1 0h1m1 0h4m1 0h1m2 0h6m1 0h3m1 0h3m1 0h2m1 0h1m6 0h1m1 0h1m1 0h2m2 0h4m2 0h1m2 0h7m2 0h1m4 0h2m1 0h2m1 0h1m3 0h1m1 0h4M6 26.5h1m2 0h4m1 0h1m2 0h4m2 0h3m2 0h1m2 0h2m2 0h4m1 0h5m2 0h2m1 0h1m3 0h1m5 0h1m1 0h2m2 0h4m2 0h2m1 0h1m2 0h1m2 0h2m2 0h2m4 0h1M4 27.5h2m3 0h1m1 0h3m1 0h2m1 0h2m2 0h2m1 0h1m2 0h1m2 0h1m1 0h1m2 0h2m1 0h2m1 0h3m1 0h1m1 0h2m1 0h2m2 0h1m2 0h1m2 0h1m1 0h3m4 0h1m3 0h1m3 0h1m2 0h1m2 0h4m1 0h1m1 0h1M4 28.5h2m1 0h5m2 0h4m1 0h1m1 0h1m1 0h1m4 0h1m2 0h1m1 0h1m1 0h1m1 0h1m2 0h1m4 0h1m4 0h1m1 0h1m3 0h1m1 0h3m1 0h1m1 0h2m3 0h3m1 0h2m1 0h3m1 0h7m2 0h1m2 0h1M4 29.5h6m1 0h4m4 0h1m1 0h2m1 0h1m4 0h1m2 0h3m1 0h2m1 0h2m3 0h1m1 0h3m2 0h1m1 0h1m1 0h1m2 0h2m2 0h1m1 0h1m3 0h1m3 0h1m2 0h1m4 0h1m1 0h2m1 0h1m2 0h2m1 0h2M4 30.5h1m5 0h5m1 0h1m1 0h2m1 0h4m3 0h1m1 0h6m1 0h3m2 0h3m2 0h1m1 0h4m1 0h4m2 0h9m1 0h3m2 0h1m3 0h1m4 0h1m2 0h1m3 0h1M8 31.5h2m1 0h2m2 0h1m2 0h2m1 0h4m2 0h1m1 0h3m2 0h3m5 0h1m1 0h1m2 0h1m6 0h3m1 0h2m1 0h1m1 0h1m7 0h1m2 0h1m1 0h1m1 0h1m1 0h1m2 0h3m1 0h3m1 0h2M4 32.5h1m2 0h7m3 0h1m4 0h4m1 0h1m2 0h7m1 0h1m3 0h1m1 0h2m1 0h2m1 0h3m5 0h9m1 0h1m2 0h2m3 0h1m1 0h1m2 0h1m1 0h7m2 0h1M4 33.5h1m1 0h3m3 0h1m1 0h2m1 0h2m4 0h1m2 0h4m2 0h1m3 0h4m4 0h1m3 0h7m1 0h1m1 0h1m3 0h1m1 0h1m1 0h1m3 0h2m1 0h3m1 0h3m4 0h1m3 0h2m1 0h2M5 34.5h4m1 0h1m1 0h2m1 0h3m1 0h2m1 0h1m2 0h3m2 0h3m1 0h1m1 0h8m5 0h3m1 0h2m1 0h3m1 0h1m1 0h1m5 0h4m1 0h1m1 0h1m4 0h3m1 0h1m1 0h1m1 0h1m2 0h2M4 35.5h3m1 0h1m3 0h2m1 0h6m1 0h1m2 0h1m1 0h1m1 0h1m2 0h1m3 0h4m3 0h1m2 0h2m4 0h1m1 0h3m1 0h1m3 0h1m2 0h4m2 0h4m1 0h1m1 0h2m1 0h4m3 0h1m1 0h1M4 36.5h2m2 0h5m1 0h2m1 0h1m1 0h1m1 0h3m2 0h2m4 0h6m6 0h1m1 0h3m1 0h1m1 0h1m1 0h1m1 0h1m1 0h5m1 0h1m1 0h1m5 0h1m4 0h1m1 0h1m1 0h1m1 0h7M9 37.5h1m3 0h1m3 0h1m2 0h2m1 0h1m2 0h1m1 0h1m3 0h1m1 0h1m3 0h1m1 0h2m1 0h3m4 0h2m4 0h5m1 0h1m4 0h1m2 0h1m1 0h6m1 0h1m1 0h6m2 0h2m1 0h1M4 38.5h1m2 0h1m1 0h2m1 0h1m2 0h2m1 0h3m1 0h1m1 0h1m2 0h2m3 0h3m2 0h3m2 0h2m3 0h1m2 0h2m1 0h1m2 0h1m1 0h2m3 0h1m1 0h1m2 0h1m1 0h1m2 0h1m1 0h3m1 0h1m1 0h5m2 0h1m2 0h2M4 39.5h1m2 0h1m1 0h1m1 0h1m4 0h1m4 0h2m1 0h1m2 0h2m2 0h5m1 0h3m3 0h2m2 0h1m1 0h4m1 0h1m2 0h1m1 0h2m1 0h4m1 0h2m1 0h1m1 0h2m1 0h1m1 0h2m1 0h2m3 0h1m4 0h1M6 40.5h2m1 0h2m1 0h1m1 0h2m1 0h2m3 0h4m2 0h2m1 0h1m1 0h3m1 0h1m1 0h1m2 0h8m1 0h3m1 0h1m2 0h7m2 0h1m3 0h2m2 0h4m2 0h1m5 0h2m1 0h1M7 41.5h1m1 0h1m1 0h1m2 0h2m2 0h3m2 0h2m1 0h2m1 0h2m1 0h2m4 0h1m2 0h2m1 0h1m1 0h1m1 0h2m5 0h1m3 0h3m1 0h1m1 0h2m5 0h2m2 0h2m1 0h2m1 0h4m1 0h2m2 0h2M4 42.5h2m2 0h4m2 0h3m2 0h2m4 0h1m1 0h4m1 0h2m1 0h1m3 0h3m3 0h2m2 0h5m1 0h1m1 0h1m4 0h3m1 0h1m1 0h7m5 0h2m1 0h1m2 0h2m1 0h1m2 0h1M5 43.5h2m1 0h2m2 0h2m1 0h1m1 0h1m2 0h1m1 0h1m1 0h1m2 0h2m1 0h2m1 0h1m2 0h1m2 0h1m1 0h3m2 0h1m1 0h4m1 0h1m2 0h1m1 0h1m2 0h3m1 0h1m9 0h5m3 0h1m2 0h1m1 0h1m1 0h1m1 0h1M5 44.5h3m2 0h1m1 0h2m1 0h2m1 0h1m1 0h1m1 0h1m1 0h1m2 0h4m2 0h3m3 0h1m1 0h1m1 0h1m3 0h4m1 0h1m1 0h1m1 0h1m2 0h1m4 0h1m1 0h4m1 0h1m1 0h1m1 0h1m2 0h3m1 0h1m1 0h1m2 0h1m3 0h1M5 45.5h1m1 0h1m1 0h1m1 0h2m3 0h1m1 0h1m2 0h3m2 0h2m2 0h4m1 0h4m2 0h4m5 0h2m2 0h2m2 0h1m1 0h1m1 0h6m3 0h1m5 0h2m2 0h1m1 0h2m2 0h2m1 0h2M6 46.5h3m1 0h4m1 0h3m3 0h1m1 0h1m2 0h2m3 0h1m1 0h1m1 0h4m2 0h1m1 0h2m1 0h1m2 0h1m1 0h3m2 0h2m4 0h3m2 0h1m1 0h2m1 0h1m1 0h3m1 0h1m2 0h2m1 0h1m1 0h4m1 0h2M4 47.5h2m3 0h1m4 0h1m1 0h1m1 0h1m1 0h1m4 0h6m3 0h1m1 0h2m3 0h4m1 0h2m1 0h4m4 0h2m2 0h2m2 0h1m4 0h2m2 0h1m2 0h1m1 0h3m1 0h1m2 0h1m1 0h1m3 0h1M4 48.5h1m2 0h5m1 0h1m1 0h1m1 0h7m2 0h1m1 0h4m1 0h2m3 0h1m1 0h1m1 0h1m1 0h1m3 0h1m4 0h2m1 0h6m1 0h5m4 0h1m6 0h2m4 0h1m2 0h5M6 49.5h3m2 0h1m1 0h1m5 0h1m1 0h4m4 0h1m4 0h2m3 0h4m2 0h1m1 0h1m1 0h2m1 0h1m2 0h1m1 0h1m3 0h2m3 0h1m2 0h2m1 0h3m1 0h2m1 0h2m1 0h1m1 0h3m2 0h1m2 0h1M5 50.5h2m1 0h3m1 0h4m2 0h2m1 0h2m3 0h2m2 0h2m1 0h1m1 0h1m3 0h1m1 0h2m1 0h2m2 0h3m1 0h2m2 0h4m2 0h1m1 0h3m1 0h3m1 0h2m1 0h1m2 0h2m2 0h1M6 51.5h4m2 0h2m2 0h1m2 0h5m2 0h4m3 0h1m8 0h1m1 0h2m3 0h1m1 0h1m4 0h1m2 0h1m5 0h2m2 0h2m2 0h3m2 0h3m3 0h2m1 0h3m2 0h1M4 52.5h1m2 0h1m1 0h5m3 0h2m1 0h2m2 0h4m2 0h2m1 0h5m1 0h1m1 0h2m2 0h1m4 0h5m1 0h3m1 0h4m1 0h2m1 0h2m1 0h2m2 0h2m5 0h2m1 0h1m2 0h5M5 53.5h2m1 0h2m1 0h2m1 0h4m1 0h1m1 0h1m4 0h1m1 0h3m3 0h1m1 0h1m1 0h1m1 0h2m1 0h2m1 0h1m2 0h1m3 0h1m3 0h2m1 0h2m1 0h1m2 0h1m3 0h1m2 0h1m1 0h1m8 0h1m1 0h1m1 0h4M8 54.5h1m1 0h1m2 0h1m1 0h1m1 0h1m1 0h1m1 0h2m2 0h2m1 0h1m1 0h2m4 0h6m3 0h1m3 0h1m3 0h1m2 0h1m1 0h1m1 0h1m2 0h1m1 0h1m2 0h3m2 0h1m1 0h2m2 0h2m1 0h1m3 0h1m1 0h3m1 0h1M4 55.5h5m2 0h1m2 0h1m4 0h1m1 0h2m2 0h2m3 0h2m1 0h2m1 0h3m2 0h1m3 0h2m2 0h2m3 0h4m1 0h1m2 0h1m5 0h1m5 0h1m4 0h1m4 0h5m3 0h1M7 56.5h1m2 0h5m1 0h1m2 0h3m1 0h1m2 0h6m2 0h2m1 0h1m3 0h1m7 0h1m1 0h3m1 0h2m2 0h3m1 0h1m2 0h3m1 0h1m2 0h3m4 0h1m1 0h1m3 0h1m1 0h1M8 57.5h1m3 0h6m1 0h2m1 0h1m1 0h1m3 0h3m2 0h4m2 0h2m1 0h6m3 0h2m1 0h1m2 0h4m1 0h1m1 0h2m2 0h2m2 0h1m2 0h2m2 0h3m2 0h2m1 0h1m2 0h3M5 58.5h2m1 0h5m2 0h2m3 0h1m1 0h3m4 0h1m2 0h5m1 0h1m1 0h4m3 0h2m1 0h1m2 0h1m2 0h10m1 0h2m2 0h1m1 0h1m1 0h1m1 0h1m2 0h3m1 0h6m1 0h1M6 59.5h1m1 0h1m3 0h2m4 0h1m3 0h6m1 0h1m2 0h1m3 0h3m4 0h2m4 0h1m1 0h2m1 0h1m1 0h3m3 0h2m3 0h2m3 0h3m1 0h1m1 0h4m1 0h2m3 0h1m1 0h2M5 60.5h2m1 0h1m1 0h1m1 0h2m1 0h1m4 0h1m1 0h1m3 0h1m2 0h1m1 0h2m1 0h1m1 0h3m1 0h3m2 0h3m1 0h1m3 0h1m1 0h1m2 0h1m1 0h1m1 0h2m1 0h1m1 0h1m3 0h3m1 0h3m1 0h2m3 0h1m1 0h1m1 0h2m2 0h1M4 61.5h1m3 0h1m3 0h1m1 0h3m3 0h3m4 0h2m3 0h1m3 0h1m1 0h1m1 0h2m2 0h3m2 0h1m2 0h1m1 0h2m1 0h2m3 0h2m3 0h1m5 0h4m3 0h2m1 0h2m3 0h1m1 0h1m1 0h1M4 62.5h1m1 0h7m1 0h1m3 0h1m1 0h3m3 0h1m1 0h2m2 0h5m1 0h1m6 0h1m1 0h1m1 0h1m1 0h1m3 0h2m1 0h7m1 0h1m1 0h3m1 0h1m3 0h1m3 0h3m1 0h5m1 0h2M4 63.5h4m3 0h4m3 0h1m1 0h1m1 0h3m1 0h1m2 0h5m1 0h4m1 0h3m1 0h1m4 0h2m6 0h1m1 0h5m1 0h4m1 0h1m1 0h1m2 0h1m5 0h1m1 0h2m4 0h4M5 64.5h1m1 0h1m2 0h1m6 0h1m2 0h4m6 0h1m1 0h1m1 0h1m3 0h1m2 0h1m3 0h1m1 0h1m1 0h2m3 0h4m1 0h1m5 0h1m3 0h1m1 0h2m2 0h4m4 0h1m1 0h1m1 0h1m1 0h1M5 65.5h3m1 0h1m2 0h1m2 0h2m3 0h2m2 0h6m1 0h1m1 0h2m2 0h1m2 0h1m2 0h1m2 0h2m2 0h1m2 0h2m1 0h1m1 0h1m4 0h1m2 0h1m1 0h1m3 0h2m5 0h1m1 0h1m3 0h1m2 0h1m1 0h1M5 66.5h2m3 0h1m1 0h1m2 0h3m1 0h3m2 0h5m4 0h3m1 0h4m2 0h2m1 0h1m1 0h2m1 0h2m1 0h2m1 0h1m1 0h1m1 0h2m1 0h1m2 0h1m3 0h5m1 0h1m2 0h4m1 0h1m1 0h6M5 67.5h1m1 0h2m4 0h2m1 0h1m1 0h1m2 0h1m1 0h1m1 0h2m2 0h2m1 0h1m3 0h2m3 0h1m1 0h3m1 0h2m1 0h1m2 0h1m1 0h1m1 0h2m2 0h1m2 0h2m4 0h2m1 0h2m2 0h1m1 0h4m1 0h2m1 0h3m1 0h2M4 68.5h7m4 0h4m3 0h7m1 0h2m7 0h1m1 0h2m4 0h3m1 0h3m1 0h1m1 0h1m3 0h2m2 0h2m2 0h1m4 0h1m1 0h4m2 0h1m2 0h1m1 0h2m1 0h1M4 69.5h1m2 0h2m3 0h6m1 0h3m1 0h1m2 0h2m1 0h2m1 0h5m1 0h3m1 0h5m2 0h1m1 0h3m2 0h1m1 0h2m1 0h4m2 0h2m2 0h2m1 0h1m4 0h7m6 0h1M8 70.5h1m1 0h1m6 0h2m2 0h1m1 0h1m1 0h1m1 0h1m1 0h2m2 0h1m2 0h6m1 0h1m1 0h1m2 0h2m2 0h1m1 0h4m3 0h1m7 0h1m1 0h1m3 0h1m1 0h2m1 0h2m2 0h4m1 0h1M4 71.5h2m3 0h1m1 0h2m3 0h1m3 0h1m2 0h1m5 0h4m2 0h1m1 0h3m1 0h1m2 0h2m5 0h1m2 0h2m1 0h1m1 0h4m1 0h1m1 0h1m2 0h1m1 0h1m1 0h4m1 0h1m2 0h1m1 0h2m1 0h2m2 0h2M4 72.5h7m9 0h2m3 0h1m4 0h1m1 0h1m2 0h5m2 0h2m1 0h3m1 0h1m1 0h1m1 0h1m1 0h1m4 0h2m2 0h1m3 0h1m1 0h1m9 0h1m2 0h3m2 0h5M4 73.5h2m7 0h2m2 0h1m1 0h2m1 0h2m2 0h3m1 0h1m2 0h1m1 0h4m2 0h4m1 0h1m1 0h1m2 0h1m1 0h2m1 0h1m1 0h1m1 0h4m1 0h2m2 0h3m1 0h4m1 0h1m1 0h4m2 0h1m5 0h1M4 74.5h1m5 0h1m1 0h5m3 0h7m1 0h8m1 0h2m1 0h2m1 0h2m2 0h2m1 0h2m1 0h4m4 0h1m3 0h1m1 0h2m6 0h1m1 0h1m1 0h2m2 0h4m2 0h4M4 75.5h4m7 0h1m1 0h2m1 0h4m1 0h2m3 0h1m1 0h1m5 0h5m1 0h1m2 0h1m3 0h3m1 0h1m1 0h1m1 0h1m7 0h4m1 0h2m1 0h2m2 0h2m2 0h1m1 0h5m1 0h2M4 76.5h1m3 0h6m1 0h2m1 0h2m2 0h1m4 0h4m5 0h1m4 0h2m1 0h4m1 0h2m1 0h1m1 0h2m10 0h2m1 0h1m1 0h1m1 0h1m1 0h1m2 0h1m1 0h3m4 0h3m1 0h2M4 77.5h1m1 0h1m7 0h2m1 0h2m1 0h2m2 0h1m2 0h1m1 0h1m1 0h2m2 0h2m1 0h2m2 0h1m2 0h1m1 0h2m4 0h1m1 0h1m4 0h1m1 0h3m3 0h2m1 0h1m1 0h4m1 0h1m1 0h2m1 0h3m2 0h2M6 78.5h1m2 0h2m1 0h2m1 0h5m1 0h2m3 0h1m8 0h2m2 0h2m1 0h1m1 0h1m3 0h4m3 0h1m1 0h2m3 0h2m1 0h2m2 0h1m1 0h1m1 0h7m1 0h1m2 0h3m1 0h1m1 0h1M6 79.5h4m2 0h3m1 0h1m1 0h1m2 0h4m4 0h1m3 0h3m3 0h2m1 0h1m2 0h3m4 0h1m1 0h4m4 0h2m1 0h1m1 0h1m1 0h3m2 0h2m1 0h2m1 0h1m1 0h1m1 0h3m1 0h1m3 0h1M4 80.5h1m5 0h4m2 0h2m1 0h1m3 0h3m7 0h1m4 0h1m6 0h1m1 0h2m1 0h1m1 0h2m1 0h1m1 0h3m5 0h2m1 0h1m4 0h1m2 0h1m5 0h3m1 0h1m1 0h2m2 0h1M4 81.5h4m1 0h1m2 0h1m1 0h2m1 0h3m1 0h3m2 0h5m1 0h1m2 0h1m1 0h3m1 0h1m2 0h3m1 0h3m2 0h2m1 0h2m4 0h1m2 0h1m1 0h2m2 0h2m1 0h3m2 0h2m1 0h1m1 0h1m2 0h1M4 82.5h1m2 0h1m2 0h1m2 0h1m1 0h2m1 0h1m3 0h1m3 0h1m2 0h1m2 0h1m1 0h2m1 0h3m1 0h1m4 0h1m2 0h2m2 0h1m1 0h5m1 0h4m8 0h1m2 0h2m4 0h3m3 0h2m1 0h1M4 83.5h2m2 0h2m1 0h1m2 0h2m2 0h2m2 0h1m2 0h3m3 0h1m1 0h1m1 0h1m2 0h3m1 0h2m1 0h1m1 0h1m1 0h1m1 0h2m1 0h1m4 0h1m2 0h2m2 0h1m2 0h1m5 0h5m6 0h1m3 0h2M4 84.5h1m2 0h1m2 0h2m5 0h3m2 0h2m5 0h1m1 0h7m3 0h1m1 0h1m1 0h4m4 0h1m2 0h1m1 0h5m1 0h1m3 0h1m1 0h2m3 0h1m1 0h1m5 0h7m1 0h1M12 85.5h2m2 0h3m1 0h2m4 0h5m1 0h1m3 0h1m1 0h4m2 0h2m3 0h1m1 0h1m6 0h1m3 0h3m1 0h1m1 0h1m2 0h1m3 0h2m3 0h5m3 0h1m1 0h1m1 0h1M4 86.5h7m5 0h1m2 0h1m5 0h1m1 0h2m3 0h1m1 0h1m1 0h2m3 0h1m3 0h1m2 0h4m1 0h1m3 0h2m1 0h1m1 0h1m3 0h1m1 0h2m1 0h3m3 0h1m4 0h1m1 0h1m1 0h1m1 0h4M4 87.5h1m5 0h1m1 0h2m1 0h2m1 0h4m1 0h2m2 0h2m2 0h2m3 0h2m1 0h1m3 0h2m2 0h1m2 0h1m1 0h2m3 0h2m3 0h1m1 0h5m1 0h3m1 0h1m1 0h4m1 0h1m1 0h2m3 0h1m1 0h2M4 88.5h1m1 0h3m1 0h1m1 0h2m1 0h4m3 0h2m1 0h2m1 0h2m2 0h6m2 0h1m1 0h7m1 0h1m3 0h2m1 0h6m1 0h1m1 0h1m2 0h2m2 0h1m4 0h12m1 0h1M4 89.5h1m1 0h3m1 0h1m2 0h1m2 0h3m2 0h1m1 0h2m1 0h8m1 0h1m4 0h3m1 0h1m2 0h3m1 0h1m1 0h1m2 0h1m3 0h2m1 0h1m1 0h4m2 0h5m2 0h1m1 0h1m1 0h1m1 0h2m1 0h3M4 90.5h1m1 0h3m1 0h1m2 0h1m1 0h1m1 0h7m1 0h1m2 0h3m1 0h2m2 0h4m1 0h1m3 0h1m2 0h1m1 0h1m1 0h1m2 0h2m1 0h1m3 0h1m5 0h1m2 0h2m1 0h1m1 0h2m1 0h2m2 0h1m1 0h1m2 0h2m1 0h2M4 91.5h1m5 0h1m1 0h1m1 0h1m1 0h2m1 0h1m1 0h1m1 0h1m1 0h3m3 0h1m2 0h1m2 0h1m2 0h1m2 0h1m1 0h3m2 0h1m4 0h1m2 0h1m1 0h5m9 0h2m1 0h2m2 0h8m2 0h2M4 92.5h7m1 0h1m3 0h4m1 0h4m1 0h1m1 0h1m2 0h2m4 0h3m1 0h2m2 0h3m2 0h1m1 0h2m5 0h4m2 0h1m2 0h3m1 0h1m2 0h1m2 0h1m3 0h1m1 0h2m5 0h1"/></svg>
