<svg xmlns="http://www.w3.org/2000/svg" viewBox="0 0 97 97" shape-rendering="crispEdges"><path fill="#ffffff" d="M0 0h97v97H0z"/><path stroke="#000000" d="M4 4.5h7m1 0h5m1 0h6m1 0h2m1 0h3m1 0h1m1 0h1m1 0h1m4 0h1m1 0h8m1 0h1m1 0h1m3 0h1m1 0h2m1 0h1m1 0h1m1 0h1m3 0h2m4 0h1m1 0h1m2 0h3m1 0h7M4 5.5h1m5 0h1m1 0h2m3 0h1m1 0h1m1 0h2m8 0h2m2 0h3m1 0h2m2 0h1m1 0h2m2 0h1m1 0h1m1 0h1m1 0h1m4 0h3m1 0h1m1 0h2m1 0h1m5 0h1m2 0h4m1 0h1m2 0h1m5 0h1M4 6.5h1m1 0h3m1 0h1m1 0h1m2 0h1m2 0h2m2 0h1m1 0h4m1 0h1m5 0h1m1 0h2m1 0h1m5 0h1m4 0h2m1 0h1m1 0h1m5 0h2m2 0h4m3 0h1m1 0h1m3 0h1m1 0h1m4 0h1m1 0h3m1 0h1M4 7.5h1m1 0h3m1 0h1m1 0h7m2 0h2m2 0h1m2 0h3m1 0h2m1 0h2m1 0h1m5 0h2m1 0h2m2 0h1m1 0h4m1 0h2m1 0h5m1 0h1m2 0h1m1 0h1m1 0h1m1 0h2m2 0h1m1 0h1m1 0h1m1 0h1m1 0h3m1 0h1M4 8.5h1m1 0h3m1 0h1m2 0h1m3 0h2m2 0h1m2 0h1m3 0h3m1 0h5m7 0h1m2 0h1m1 0h2m2 0h1m2 0h8m3 0h4m3 0h1m1 0h1m6 0h1m2 0h1m1 0h3m1 0h1M4 9.5h1m5 0h1m1 0h1m1 0h1m1 0h2m1 0h3m1 0h1m2 0h3m1 0h1m1 0h1m3 0h2m1 0h5m1 0h2m2 0h2m1 0h3m1 0h1m1 0h1m3 0h1m3 0h1m4 0h2m3 0h1m6 0h1m2 0h1m5 0h1M4 10.5h7m1 0h1m1 0h1m1 0h1m1 0h1m1 0h1m1 0h1m1 0h1m1 0h1m1 0h1m1 0h1m1 0h1m1 0h1m1 0h1m1 0h1m1 0h1m1 0h1m1 0h1m1 0h1m1 0h1m1 0h1m1 0h1m1 0h1m1 0h1m1 0h1m1 0h1m1 0h1m1 0h1m1 0h1m1 0h1m1 0h1m1 0h1m1 0h1m1 0h1m1 0h1m1 0h1m1 0h1m1 0h1m1 0h7M14 11.5h4m2 0h1m2 0h3m2 0h5m3 0h2m1 0h1m2 0h1m1 0h3m2 0h5m1 0h2m1 0h1m3 0h1m1 0h1m1 0h2m1 0h1m1 0h3m2 0h1m1 0h1m2 0h3M4 12.5h2m2 0h3m7 0h1m1 0h7m3 0h12m3 0h4m4 0h1m2 0h1m1 0h5m1 0h3m6 0h2m2 0h2m1 0h2m1 0h2m2 0h1m1 0h4M5 13.5h5m2 0h1m1 0h1m1 0h3m1 0h5m4 0h3m1 0h5m3 0h2m1 0h1m2 0h1m1 0h3m2 0h3m1 0h3m4 0h1m1 0h1m1 0h1m3 0h1m7 0h1m5 0h1m1 0h1m1 0h2M4 14.5h1m1 0h3m1 0h2m4 0h1m2 0h4m4 0h1m1 0h3m1 0h3m2 0h2m2 0h1m2 0h2m1 0h1m2 0h1m3 0h2m1 0h2m2 0h1m2 0h2m1 0h2m1 0h1m1 0h6m3 0h2m2 0h2m2 0h1m1 0h1M5 15.5h2m1 0h1m3 0h3m2 0h1m8 0h2m1 0h2m1 0h1m1 0h1m2 0h1m1 0h1m1 0h2m1 0h2m1 0h2m1 0h2m1 0h1m1 0h1m1 0h1m1 0h1m2 0h1m2 0h1m1 0h1m1 0h4m1 0h3m2 0h2m4 0h2m4 0h1M4 16.5h2m1 0h2m1 0h1m2 0h2m1 0h5m1 0h4m1 0h2m1 0h2m1 0h1m2 0h4m1 0h1m5 0h2m2 0h1m1 0h1m2 0h1m1 0h1m2 0h1m2 0h5m3 0h3m1 0h10M4 17.5h3m4 0h1m2 0h1m1 0h1m1 0h1m2 0h1m6 0h2m1 0h2m1 0h3m1 0h1m1 0h1m2 0h1m1 0h3m2 0h1m3 0h2m1 0h1m6 0h2m4 0h2m1 0h2m3 0h3m3 0h1m2 0h2m3 0h1M5 18.5h2m1 0h1m1 0h3m5 0h1m2 0h2m2 0h3m3 0h2m1 0h2m3 0h2m2 0h3m2 0h1m2 0h2m2 0h2m1 0h1m1 0h1m1 0h5m1 0h1m1 0h1m4 0h5m1 0h4m1 0h2m4 0h1M6 19.5h1m4 0h2m2 0h3m1 0h3m2 0h1m4 0h3m5 0h2m1 0h2m1 0h1m1 0h2m2 0h2m3 0h1m2 0h1m1 0h1m1 0h1m1 0h2m2 0h1m1 0h9m1 0h2m1 0h1m3 0h4M4 20.5h2m1 0h1m2 0h1m1 0h2m1 0h2m1 0h3m2 0h2m5 0h1m10 0h1m1 0h2m3 0h2m1 0h2m1 0h3m1 0h3m6 0h1m3 0h4m1 0h2m1 0h2m3 0h1m1 0h1m2 0h1M5 21.5h1m2 0h2m1 0h2m1 0h3m1 0h1m4 0h1m2 0h4m3 0h2m1 0h1m1 0h3m1 0h1m1 0h1m2 0h3m3 0h1m2 0h1m2 0h1m2 0h6m1 0h3m1 0h2m2 0h3m4 0h1m3 0h1M4 22.5h5m1 0h2m1 0h1m1 0h1m1 0h1m2 0h6m5 0h2m1 0h2m1 0h1m3 0h1m3 0h1m2 0h1m1 0h2m1 0h1m7 0h2m2 0h1m2 0h1m2 0h4m2 0h2m1 0h1m2 0h1m1 0h5m1 0h2M4 23.5h2m3 0h1m2 0h1m2 0h1m1 0h2m2 0h2m1 0h1m1 0h1m2 0h3m1 0h4m2 0h1m2 0h2m1 0h1m1 0h3m1 0h2m5 0h1m1 0h7m1 0h3m5 0h3m1 0h2m1 0h1m3 0h1m1 0h1m2 0h1M5 24.5h1m2 0h5m2 0h3m2 0h3m1 0h2m3 0h5m2 0h4m2 0h1m2 0h2m1 0h1m1 0h1m1 0h1m4 0h2m1 0h1m1 0h2m1 0h3m3 0h2m1 0h1m1 0h1m3 0h2m1 0h2m1 0h1m1 0h3M4 25.5h2m3 0h1m3 0h3m3 0h3m1 0h2m2 0h2m1 0h1m1 0h1m1 0h1m1 0h1m4 0h3m2 0h2m1 0h1m1 0h1m2 0h1m1 0h1m1 0h1m4 0h5m4 0h4m2 0h2m3 0h1m1 0h3m4 0h1M4 26.5h2m3 0h3m1 0h1m2 0h1m1 0h2m1 0h1m2 0h1m1 0h1m1 0h4m1 0h3m4 0h1m2 0h2m2 0h2m1 0h3m2 0h3m8 0h1m1 0h2m1 0h4m4 0h1m1 0h1m2 0h1m1 0h2m1 0h1M7 27.5h2m3 0h3m1 0h2m1 0h2m1 0h2m1 0h2m5 0h4m1 0h2m3 0h2m2 0h1m1 0h1m1 0h2m2 0h1m2 0h5m3 0h1m4 0h1m2 0h2m3 0h5m4 0h2m1 0h2M6 28.5h1m1 0h4m1 0h1m1 0h1m2 0h1m2 0h3m1 0h1m3 0h1m1 0h1m2 0h4m1 0h2m1 0h2m1 0h1m3 0h2m3 0h1m2 0h1m4 0h1m2 0h1m3 0h3m1 0h2m1 0h3m1 0h8m1 0h1m1 0h1M6 29.5h4m3 0h1m4 0h2m2 0h1m1 0h2m5 0h1m1 0h2m1 0h1m1 0h1m1 0h3m1 0h1m1 0h5m2 0h4m3 0h1m7 0h1m3 0h1m1 0h1m5 0h1m1 0h1m2 0h1m3 0h1m1 0h2M9 30.5h2m2 0h3m1 0h1m4 0h3m1 0h2m2 0h2m1 0h5m1 0h2m1 0h3m2 0h1m1 0h1m1 0h2m1 0h2m1 0h2m2 0h1m1 0h1m1 0h4m1 0h2m1 0h1m2 0h1m3 0h1m2 0h1m4 0h1M4 31.5h1m1 0h1m4 0h1m1 0h5m4 0h3m2 0h1m2 0h6m4 0h1m1 0h1m1 0h2m4 0h2m1 0h2m2 0h3m1 0h5m1 0h2m2 0h2m2 0h4m1 0h2m1 0h1m1 0h1m1 0h1m1 0h1m1 0h1M6 32.5h1m1 0h10m5 0h3m1 0h1m2 0h7m1 0h1m1 0h1m2 0h1m3 0h2m2 0h4m3 0h6m1 0h2m1 0h2m2 0h1m1 0h6m1 0h1m2 0h6m2 0h1M4 33.5h1m2 0h2m3 0h1m1 0h4m1 0h1m1 0h1m1 0h1m2 0h1m1 0h1m1 0h1m1 0h1m3 0h3m2 0h3m2 0h4m1 0h1m1 0h2m3 0h1m3 0h1m1 0h1m2 0h2m1 0h1m1 0h1m5 0h4m2 0h1m3 0h1m1 0h2M7 34.5h2m1 0h1m1 0h1m4 0h3m6 0h1m3 0h1m1 0h1m1 0h1m1 0h3m5 0h1m4 0h1m2 0h7m1 0h1m1 0h3m1 0h3m1 0h2m3 0h3m2 0h2m2 0h1m1 0h1m1 0h5M4 35.5h2m2 0h1m3 0h1m1 0h5m1 0h1m1 0h1m1 0h1m3 0h1m1 0h3m3 0h6m1 0h1m1 0h2m1 0h1m2 0h1m1 0h4m1 0h1m3 0h1m1 0h2m1 0h3m3 0h2m2 0h1m1 0h1m4 0h1m3 0h1m1 0h1m1 0h1M5 36.5h1m1 0h7m1 0h2m3 0h1m3 0h1m1 0h1m2 0h9m1 0h1m2 0h1m1 0h2m1 0h1m2 0h1m1 0h3m1 0h1m1 0h7m1 0h1m4 0h2m2 0h1m1 0h3m3 0h6m1 0h1m1 0h1M6 37.5h3m2 0h1m3 0h1m3 0h2m2 0h2m2 0h1m1 0h1m1 0h1m1 0h4m1 0h1m2 0h1m1 0h3m1 0h1m2 0h5m1 0h1m2 0h1m2 0h2m2 0h2m1 0h2m2 0h2m1 0h4m2 0h1m3 0h2m3 0h1M4 38.5h1m3 0h1m1 0h1m2 0h3m1 0h1m1 0h3m2 0h1m8 0h3m1 0h2m2 0h3m3 0h1m2 0h1m5 0h2m1 0h3m2 0h3m3 0h1m1 0h2m4 0h7m1 0h1m1 0h2m2 0h1M4 39.5h1m1 0h3m4 0h1m1 0h1m3 0h2m4 0h1m1 0h1m5 0h1m2 0h1m2 0h2m2 0h3m1 0h1m4 0h1m1 0h3m3 0h3m2 0h1m13 0h3m3 0h1m1 0h2m1 0h1M5 40.5h2m1 0h1m1 0h1m1 0h1m1 0h1m4 0h1m6 0h4m1 0h1m2 0h1m2 0h1m2 0h1m1 0h5m1 0h2m1 0h1m1 0h9m2 0h2m1 0h6m1 0h2m3 0h1m2 0h1m4 0h2M6 41.5h1m2 0h1m2 0h1m1 0h1m3 0h1m3 0h2m4 0h3m2 0h2m4 0h1m1 0h2m1 0h1m1 0h1m1 0h2m1 0h1m4 0h6m1 0h4m1 0h2m1 0h1m2 0h1m3 0h1m1 0h1m1 0h4m2 0h2m1 0h2M4 42.5h2m4 0h1m1 0h1m2 0h1m4 0h1m2 0h3m3 0h7m1 0h1m1 0h3m7 0h2m5 0h3m1 0h2m2 0h1m2 0h4m1 0h2m3 0h3m2 0h3m2 0h1m4 0h1M8 43.5h1m3 0h3m2 0h4m4 0h2m1 0h1m1 0h1m3 0h1m1 0h4m1 0h2m1 0h1m3 0h4m1 0h1m2 0h2m1 0h1m1 0h1m1 0h1m1 0h1m1 0h1m1 0h1m1 0h1m1 0h5m1 0h6m1 0h1m2 0h1m2 0h1M4 44.5h3m1 0h3m2 0h2m2 0h3m2 0h1m3 0h2m1 0h2m2 0h1m1 0h1m3 0h1m1 0h1m3 0h2m5 0h1m1 0h2m4 0h1m3 0h1m1 0h5m3 0h2m2 0h1m2 0h1m1 0h1m2 0h1m3 0h2M6 45.5h4m2 0h4m1 0h1m1 0h1m1 0h4m1 0h2m1 0h1m1 0h2m1 0h4m3 0h3m1 0h1m5 0h1m2 0h5m1 0h1m1 0h5m1 0h1m2 0h1m2 0h1m2 0h4m3 0h1m2 0h2m2 0h2M5 46.5h1m2 0h4m1 0h4m1 0h2m1 0h4m1 0h2m3 0h1m2 0h5m2 0h1m1 0h1m1 0h1m5 0h3m1 0h1m1 0h1m4 0h3m2 0h2m2 0h1m1 0h1m1 0h2m1 0h1m2 0h2m1 0h3m2 0h1M5 47.5h1m5 0h1m1 0h1m1 0h2m1 0h2m1 0h3m1 0h1m1 0h2m1 0h1m2 0h2m1 0h3m2 0h1m2 0h1m1 0h5m4 0h1m1 0h2m2 0h5m1 0h3m1 0h6m2 0h2m3 0h4m1 0h1m1 0h2M6 48.5h1m1 0h1m1 0h2m2 0h1m3 0h1m1 0h1m1 0h1m1 0h1m1 0h1m1 0h1m1 0h2m1 0h1m4 0h1m1 0h2m1 0h1m5 0h2m2 0h2m2 0h4m9 0h2m3 0h1m3 0h1m1 0h2m1 0h1m2 0h3m2 0h1M5 49.5h1m1 0h1m4 0h2m1 0h2m1 0h3m4 0h2m2 0h1m2 0h1m1 0h2m3 0h2m3 0h2m1 0h3m1 0h1m1 0h1m1 0h1m1 0h1m7 0h2m1 0h1m2 0h1m1 0h1m3 0h2m4 0h4m3 0h2M6 50.5h1m1 0h5m2 0h1m1 0h1m4 0h1m1 0h1m1 0h2m2 0h2m2 0h1m1 0h1m1 0h2m2 0h2m1 0h1m3 0h1m2 0h1m1 0h2m7 0h1m1 0h1m2 0h1m1 0h1m1 0h1m1 0h3m1 0h2m1 0h1m1 0h1m7 0h1M5 51.5h1m2 0h1m2 0h1m1 0h3m2 0h1m2 0h1m1 0h1m1 0h4m4 0h1m3 0h1m2 0h2m2 0h2m6 0h1m2 0h1m2 0h2m1 0h1m3 0h2m2 0h2m2 0h2m3 0h2m3 0h3m1 0h1M5 52.5h1m1 0h1m2 0h4m2 0h2m2 0h1m1 0h2m1 0h1m1 0h1m1 0h1m1 0h4m2 0h2m3 0h1m2 0h1m4 0h1m2 0h4m3 0h2m1 0h1m1 0h2m1 0h2m1 0h5m3 0h1m2 0h1m1 0h2m2 0h4M5 53.5h2m1 0h2m4 0h2m1 0h1m1 0h2m2 0h2m1 0h1m7 0h1m1 0h1m1 0h1m1 0h1m5 0h1m3 0h4m1 0h3m1 0h3m1 0h1m2 0h1m3 0h1m2 0h1m1 0h3m1 0h2m2 0h1m4 0h5M6 54.5h5m1 0h2m3 0h2m2 0h1m3 0h5m1 0h1m3 0h1m2 0h5m1 0h2m3 0h2m2 0h3m2 0h1m2 0h1m1 0h3m2 0h3m3 0h1m2 0h4m1 0h2m1 0h2m1 0h3m1 0h1M4 55.5h1m2 0h1m1 0h1m2 0h2m3 0h1m3 0h1m1 0h1m1 0h7m1 0h3m1 0h2m3 0h1m3 0h1m1 0h1m1 0h3m1 0h10m4 0h2m4 0h4m1 0h1m3 0h3m1 0h1m3 0h1M4 56.5h2m1 0h1m1 0h3m1 0h1m3 0h2m1 0h1m1 0h2m2 0h1m1 0h3m2 0h5m4 0h1m1 0h2m8 0h1m4 0h2m3 0h1m1 0h1m1 0h1m1 0h1m1 0h3m4 0h2m1 0h2m2 0h1m1 0h1m2 0h2M4 57.5h1m1 0h1m7 0h1m2 0h4m3 0h1m3 0h1m6 0h2m2 0h2m4 0h1m3 0h1m5 0h1m1 0h3m1 0h2m1 0h1m1 0h1m3 0h1m2 0h2m3 0h3m2 0h3m1 0h1m1 0h3M8 58.5h6m1 0h1m1 0h1m1 0h3m1 0h3m2 0h1m3 0h5m1 0h1m2 0h2m1 0h1m4 0h3m3 0h1m2 0h6m1 0h1m1 0h3m1 0h1m2 0h2m1 0h1m1 0h4m1 0h5m1 0h1M4 59.5h1m2 0h2m3 0h2m1 0h1m3 0h1m1 0h3m5 0h2m1 0h1m3 0h4m2 0h4m1 0h1m1 0h1m2 0h1m1 0h1m1 0h1m1 0h1m3 0h1m1 0h2m1 0h5m1 0h1m4 0h4m1 0h2m3 0h2m1 0h2M5 60.5h4m1 0h1m1 0h1m4 0h2m12 0h2m1 0h1m1 0h6m4 0h1m2 0h1m4 0h2m1 0h2m1 0h1m1 0h1m2 0h3m4 0h2m1 0h1m3 0h3m1 0h2m1 0h1m1 0h1m2 0h1M4 61.5h3m1 0h1m3 0h1m3 0h4m3 0h1m5 0h2m1 0h1m3 0h1m1 0h1m5 0h1m4 0h1m2 0h1m2 0h1m1 0h2m3 0h1m1 0h4m1 0h1m2 0h3m1 0h2m2 0h5m3 0h4M4 62.5h10m1 0h2m5 0h1m2 0h1m1 0h3m1 0h6m1 0h3m4 0h2m2 0h1m1 0h1m1 0h1m1 0h2m1 0h5m3 0h1m2 0h1m5 0h3m6 0h5M4 63.5h5m4 0h1m4 0h1m1 0h3m2 0h1m2 0h7m3 0h1m2 0h2m1 0h1m1 0h2m2 0h2m1 0h4m2 0h1m2 0h1m2 0h5m1 0h3m4 0h6m3 0h2m2 0h1M5 64.5h1m1 0h1m2 0h1m1 0h1m1 0h1m1 0h1m3 0h4m1 0h1m4 0h2m2 0h1m1 0h1m3 0h2m4 0h1m3 0h1m6 0h1m2 0h1m1 0h6m3 0h1m3 0h6m2 0h1m1 0h1m2 0h3m1 0h1M4 65.5h3m5 0h1m1 0h1m1 0h1m1 0h1m1 0h4m3 0h1m1 0h1m1 0h6m3 0h1m2 0h1m3 0h3m1 0h1m1 0h5m1 0h2m3 0h1m1 0h1m1 0h1m1 0h1m2 0h1m2 0h1m5 0h1m2 0h1m3 0h1M4 66.5h1m1 0h1m1 0h1m1 0h1m5 0h2m1 0h1m2 0h2m1 0h5m1 0h1m1 0h3m1 0h3m3 0h2m1 0h1m2 0h1m2 0h5m4 0h2m1 0h2m1 0h1m1 0h1m5 0h1m3 0h5m3 0h1m1 0h4M6 67.5h2m3 0h1m3 0h1m2 0h2m1 0h2m2 0h1m2 0h1m1 0h1m1 0h5m1 0h1m2 0h1m1 0h2m1 0h1m3 0h1m2 0h1m1 0h2m4 0h1m2 0h3m1 0h3m6 0h1m4 0h1m1 0h4m1 0h4M5 68.5h1m1 0h1m1 0h3m3 0h4m1 0h5m2 0h1m2 0h2m2 0h2m1 0h3m1 0h2m4 0h1m2 0h4m1 0h1m1 0h2m2 0h2m2 0h5m2 0h2m2 0h3m2 0h2m3 0h2m2 0h1M4 69.5h2m2 0h1m3 0h1m3 0h1m3 0h2m1 0h1m1 0h2m1 0h1m1 0h1m1 0h2m2 0h1m1 0h3m1 0h3m3 0h1m1 0h4m1 0h4m4 0h2m4 0h4m1 0h1m4 0h1m4 0h5m1 0h1M5 70.5h1m1 0h1m2 0h1m2 0h1m1 0h2m4 0h2m1 0h1m1 0h2m3 0h1m4 0h2m1 0h3m1 0h1m2 0h2m1 0h1m2 0h1m1 0h2m1 0h2m1 0h1m1 0h1m5 0h1m3 0h1m1 0h6m5 0h1m2 0h3m1 0h1M5 71.5h1m2 0h1m3 0h2m1 0h2m1 0h2m1 0h1m1 0h2m2 0h1m1 0h1m1 0h3m1 0h1m2 0h2m2 0h1m1 0h2m1 0h1m2 0h1m5 0h2m2 0h1m1 0h2m1 0h7m2 0h5m4 0h1m1 0h1m1 0h2m2 0h2M5 72.5h2m3 0h2m2 0h1m3 0h1m2 0h1m3 0h2m2 0h1m2 0h1m1 0h6m2 0h1m2 0h2m1 0h1m4 0h2m1 0h1m3 0h8m2 0h1m1 0h1m3 0h2m2 0h1m1 0h1m1 0h1m5 0h3M4 73.5h2m1 0h2m2 0h2m1 0h3m1 0h1m1 0h1m2 0h2m2 0h4m2 0h4m1 0h1m3 0h1m3 0h2m2 0h1m2 0h1m1 0h1m2 0h2m1 0h3m1 0h1m1 0h1m2 0h4m1 0h3m2 0h2m1 0h2m1 0h1m2 0h3M9 74.5h6m1 0h2m3 0h2m1 0h1m1 0h1m1 0h1m1 0h2m1 0h3m1 0h2m1 0h1m1 0h1m5 0h4m1 0h1m5 0h1m1 0h1m1 0h3m1 0h5m1 0h1m2 0h1m8 0h3m2 0h1m1 0h1M6 75.5h1m1 0h1m3 0h1m1 0h1m1 0h1m4 0h2m1 0h1m3 0h2m1 0h1m6 0h2m1 0h2m4 0h1m1 0h3m1 0h1m1 0h3m1 0h1m4 0h1m2 0h4m1 0h2m3 0h1m1 0h1m3 0h3m3 0h2M4 76.5h2m2 0h1m1 0h1m1 0h1m1 0h1m1 0h1m1 0h2m3 0h1m1 0h1m6 0h1m3 0h2m1 0h2m4 0h3m1 0h4m1 0h2m1 0h1m8 0h2m1 0h1m1 0h1m2 0h3m4 0h12M4 77.5h3m1 0h2m3 0h5m2 0h1m3 0h1m3 0h5m1 0h4m2 0h4m1 0h1m1 0h2m2 0h1m1 0h1m2 0h2m2 0h3m1 0h1m3 0h2m1 0h1m1 0h1m1 0h1m2 0h1m1 0h2m1 0h2m3 0h2m2 0h1M6 78.5h1m1 0h4m2 0h2m1 0h2m1 0h1m2 0h2m1 0h1m3 0h1m1 0h1m5 0h2m1 0h1m6 0h1m2 0h1m9 0h1m1 0h1m2 0h1m2 0h1m1 0h3m1 0h1m1 0h3m1 0h1m1 0h4m1 0h1m1 0h2M5 79.5h2m4 0h5m1 0h2m1 0h3m1 0h1m2 0h1m1 0h1m1 0h1m3 0h2m3 0h2m3 0h2m1 0h6m3 0h1m3 0h3m4 0h1m1 0h1m1 0h2m1 0h1m2 0h2m2 0h1m2 0h2m1 0h1m2 0h1M4 80.5h1m1 0h1m3 0h1m4 0h1m2 0h1m1 0h2m1 0h3m1 0h1m1 0h2m1 0h2m1 0h2m1 0h1m1 0h6m2 0h2m1 0h2m1 0h5m4 0h4m1 0h1m1 0h1m1 0h1m1 0h1m1 0h2m2 0h2m2 0h2m1 0h3m1 0h1M4 81.5h2m2 0h1m2 0h2m1 0h1m3 0h1m1 0h1m1 0h2m2 0h4m1 0h2m2 0h1m1 0h2m1 0h2m2 0h1m1 0h1m1 0h1m4 0h2m1 0h2m1 0h1m2 0h1m2 0h1m2 0h1m2 0h1m1 0h1m1 0h5m1 0h1m1 0h2m3 0h1m1 0h2M4 82.5h1m2 0h1m2 0h1m4 0h2m1 0h2m5 0h2m1 0h3m3 0h1m1 0h5m1 0h2m4 0h3m1 0h2m3 0h2m1 0h1m1 0h2m2 0h1m4 0h2m2 0h3m1 0h1m1 0h2m2 0h1m1 0h2m1 0h3M4 83.5h2m2 0h2m1 0h1m1 0h2m1 0h6m2 0h4m1 0h1m2 0h2m2 0h1m1 0h2m2 0h2m1 0h1m2 0h2m4 0h1m7 0h1m2 0h1m8 0h4m1 0h1m5 0h4m3 0h1M4 84.5h1m2 0h1m2 0h1m1 0h1m1 0h1m2 0h6m1 0h1m1 0h2m1 0h1m2 0h6m1 0h5m1 0h3m4 0h2m2 0h1m1 0h5m1 0h1m1 0h1m1 0h1m1 0h2m3 0h1m7 0h6m1 0h3M12 85.5h3m2 0h2m1 0h3m1 0h3m4 0h2m3 0h1m1 0h1m2 0h2m1 0h1m1 0h1m1 0h2m8 0h1m3 0h4m2 0h1m1 0h2m3 0h3m2 0h5m3 0h4M4 86.5h7m2 0h3m1 0h4m1 0h1m4 0h2m1 0h3m1 0h1m1 0h2m1 0h1m5 0h3m1 0h4m1 0h1m3 0h1m1 0h1m1 0h2m5 0h1m1 0h1m1 0h1m4 0h1m1 0h1m1 0h1m1 0h1m1 0h1m1 0h1m1 0h3M4 87.5h1m5 0h1m1 0h2m3 0h8m1 0h2m3 0h2m3 0h3m4 0h3m2 0h1m1 0h2m3 0h1m2 0h1m3 0h3m2 0h4m2 0h3m3 0h3m1 0h2m3 0h1m1 0h2M4 88.5h1m1 0h3m1 0h1m1 0h1m1 0h2m1 0h2m1 0h2m1 0h1m1 0h1m1 0h1m1 0h1m1 0h6m2 0h2m1 0h6m2 0h1m2 0h2m2 0h6m1 0h1m1 0h1m1 0h4m2 0h4m2 0h3m1 0h5m2 0h2M4 89.5h1m1 0h3m1 0h1m2 0h1m7 0h1m3 0h2m1 0h4m1 0h2m1 0h1m1 0h2m1 0h2m1 0h1m3 0h1m1 0h2m4 0h3m1 0h1m7 0h1m1 0h2m1 0h1m1 0h1m1 0h1m1 0h1m2 0h1m1 0h4m1 0h1M4 90.5h1m1 0h3m1 0h1m4 0h1m2 0h5m1 0h1m2 0h1m1 0h7m2 0h2m1 0h1m5 0h2m1 0h2m1 0h1m1 0h1m1 0h2m1 0h4m1 0h1m8 0h1m1 0h1m1 0h4m2 0h1m5 0h3M4 91.5h1m5 0h1m1 0h3m2 0h2m5 0h1m1 0h2m1 0h1m1 0h3m1 0h1m1 0h1m2 0h1m3 0h2m1 0h2m7 0h2m1 0h2m1 0h3m2 0h1m1 0h7m1 0h1m3 0h7m1 0h4M4 92.5h7m1 0h4m3 0h1m1 0h1m1 0h1m4 0h1m2 0h4m3 0h2m1 0h5m1 0h2m1 0h1m1 0h2m4 0h1m3 0h1m2 0h1m2 0h4m3 0h1m2 0h1m2 0h1m2 0h2m1 0h2m1 0h2"/></svg>
